<?xml version="1.0" encoding="UTF-8" standalone="no"?>
<!-- Created with Inkscape (http://www.inkscape.org/) -->

<svg
   xmlns:dc="http://purl.org/dc/elements/1.1/"
   xmlns:cc="http://creativecommons.org/ns#"
   xmlns:rdf="http://www.w3.org/1999/02/22-rdf-syntax-ns#"
   xmlns:svg="http://www.w3.org/2000/svg"
   xmlns="http://www.w3.org/2000/svg"
   xmlns:sodipodi="http://sodipodi.sourceforge.net/DTD/sodipodi-0.dtd"
   xmlns:inkscape="http://www.inkscape.org/namespaces/inkscape"
   width="48"
   height="48"
   id="svg2"
   version="1.1"
   inkscape:version="0.47+devel r"
   sodipodi:docname="cre-acembler-decre.svg">
  <defs
     id="defs4">
    <marker
       inkscape:stockid="Arrow1Send"
       orient="auto"
       refY="0"
       refX="0"
       id="Arrow1Send"
       style="overflow:visible">
      <path
         id="path3845"
         d="M 0,0 5,-5 -12.5,0 5,5 0,0 z"
         style="fill-rule:evenodd;stroke:#000000;stroke-width:1pt;marker-start:none"
         transform="matrix(-0.2,0,0,-0.2,-1.2,0)"
         inkscape:connector-curvature="0" />
    </marker>
    <marker
       inkscape:stockid="Arrow1Mend"
       orient="auto"
       refY="0"
       refX="0"
       id="Arrow1Mend"
       style="overflow:visible">
      <path
         id="path3839"
         d="M 0,0 5,-5 -12.5,0 5,5 0,0 z"
         style="fill-rule:evenodd;stroke:#000000;stroke-width:1pt;marker-start:none"
         transform="matrix(-0.4,0,0,-0.4,-4,0)"
         inkscape:connector-curvature="0" />
    </marker>
    <marker
       inkscape:stockid="Arrow1Lend"
       orient="auto"
       refY="0"
       refX="0"
       id="Arrow1Lend"
       style="overflow:visible">
      <path
         id="path3833"
         d="M 0,0 5,-5 -12.5,0 5,5 0,0 z"
         style="fill-rule:evenodd;stroke:#000000;stroke-width:1pt;marker-start:none"
         transform="matrix(-0.8,0,0,-0.8,-10,0)"
         inkscape:connector-curvature="0" />
    </marker>
  </defs>
  <sodipodi:namedview
     id="base"
     pagecolor="#ffffff"
     bordercolor="#666666"
     borderopacity="1.0"
     inkscape:pageopacity="0.0"
     inkscape:pageshadow="2"
     inkscape:zoom="4.7373822"
     inkscape:cx="-35.981332"
     inkscape:cy="46.634262"
     inkscape:document-units="px"
     inkscape:current-layer="layer1"
     showgrid="false"
     inkscape:window-width="1440"
     inkscape:window-height="848"
     inkscape:window-x="0"
     inkscape:window-y="25"
     inkscape:window-maximized="1"
     borderlayer="true"
     inkscape:showpageshadow="false" />
  <metadata
     id="metadata7">
    <rdf:RDF>
      <cc:Work
         rdf:about="">
        <dc:format>image/svg+xml</dc:format>
        <dc:type
           rdf:resource="http://purl.org/dc/dcmitype/StillImage" />
        <dc:title />
      </cc:Work>
    </rdf:RDF>
  </metadata>
  <g
     inkscape:label="Ebene 1"
     inkscape:groupmode="layer"
     id="layer1"
     transform="translate(0,-1004.3622)">
    <g
       id="g5657"
       transform="matrix(0.81803487,0,0,0.81803487,-0.7864381,192.31128)">
      <g
         transform="translate(-270.55151,466.82805)"
         id="g4461">
        <path
           sodipodi:type="arc"
           style="fill:none;stroke:#ff0000;stroke-width:20;stroke-linejoin:miter;stroke-miterlimit:4;stroke-opacity:1;stroke-dasharray:none"
           id="path2987"
           sodipodi:cx="259.28571"
           sodipodi:cy="374.50504"
           sodipodi:rx="89.285713"
           sodipodi:ry="89.285713"
           d="m 348.57142,374.50504 c 0,49.31113 -39.97458,89.28571 -89.28571,89.28571 -49.31114,0 -89.28572,-39.97458 -89.28572,-89.28571 0,-49.31114 39.97458,-89.28572 89.28572,-89.28572 49.31113,0 89.28571,39.97458 89.28571,89.28572 z"
           transform="matrix(0.10897687,0,0,0.10897687,263.08921,495.86438)" />
        <path
           d="m 66.670069,296.76807 c 0,9.48416 -7.688433,17.17259 -17.172594,17.17259 -9.484162,0 -17.172594,-7.68843 -17.172594,-17.17259 0,-9.48417 7.688432,-17.1726 17.172594,-17.1726 9.484161,0 17.172594,7.68843 17.172594,17.1726 z"
           sodipodi:ry="17.172594"
           sodipodi:rx="17.172594"
           sodipodi:cy="296.76807"
           sodipodi:cx="49.497475"
           id="path3802"
           style="fill:#000000;fill-opacity:1;stroke:none"
           sodipodi:type="arc"
           transform="matrix(0.18444284,0,0,0.18444284,282.2159,491.63002)" />
      </g>
      <g
         transform="translate(-294.05804,458.75383)"
         id="g4465">
        <g
           id="g3808"
           transform="matrix(0.10897687,0,0,0.10897687,265.33334,501.12785)">
          <path
             transform="translate(112.76154,254.28571)"
             sodipodi:type="arc"
             style="fill:none;stroke:#0000ff;stroke-width:20;stroke-linejoin:miter;stroke-miterlimit:4;stroke-opacity:1;stroke-dasharray:none"
             id="path3776"
             sodipodi:cx="259.28571"
             sodipodi:cy="374.50504"
             sodipodi:rx="89.285713"
             sodipodi:ry="89.285713"
             d="m 348.57142,374.50504 c 0,49.31113 -39.97458,89.28571 -89.28571,89.28571 -49.31114,0 -89.28572,-39.97458 -89.28572,-89.28571 0,-49.31114 39.97458,-89.28572 89.28572,-89.28572 49.31113,0 89.28571,39.97458 89.28571,89.28572 z" />
        </g>
        <path
           transform="matrix(0.18444284,0,0,0.18444284,296.74843,505.07546)"
           sodipodi:type="arc"
           style="fill:#000000;fill-opacity:1;stroke:none"
           id="path4447"
           sodipodi:cx="49.497475"
           sodipodi:cy="296.76807"
           sodipodi:rx="17.172594"
           sodipodi:ry="17.172594"
           d="m 66.670069,296.76807 c 0,9.48416 -7.688433,17.17259 -17.172594,17.17259 -9.484162,0 -17.172594,-7.68843 -17.172594,-17.17259 0,-9.48417 7.688432,-17.1726 17.172594,-17.1726 9.484161,0 17.172594,7.68843 17.172594,17.1726 z" />
      </g>
      <g
         transform="translate(-311.85958,482.26556)"
         id="g4453">
        <g
           id="g3818"
           transform="matrix(0.10897687,0,0,0.10897687,296.30772,500.89628)">
          <g
             transform="translate(0,1.0000013)"
             id="g3812">
            <path
               id="path3814"
               transform="translate(315.71429,151.0332)"
               sodipodi:type="arc"
               style="fill:none;stroke:#ff0000;stroke-width:20;stroke-linejoin:miter;stroke-miterlimit:4;stroke-opacity:1;stroke-dasharray:none"
               sodipodi:cx="259.28571"
               sodipodi:cy="374.50504"
               sodipodi:rx="89.285713"
               sodipodi:ry="89.285713"
               d="m 348.57142,374.50504 c 0,49.31113 -39.97458,89.28571 -89.28571,89.28571 -49.31114,0 -89.28572,-39.97458 -89.28572,-89.28571 0,-1e-5 0,-1e-5 0,-1e-5"
               sodipodi:start="0"
               sodipodi:end="3.1415927"
               sodipodi:open="true" />
            <path
               id="path3816"
               sodipodi:open="true"
               sodipodi:end="3.1415927"
               sodipodi:start="0"
               d="m 348.57142,374.50504 c 0,49.31113 -39.97458,89.28571 -89.28571,89.28571 -49.31114,0 -89.28572,-39.97458 -89.28572,-89.28571 0,-1e-5 0,-1e-5 0,-1e-5"
               sodipodi:ry="89.285713"
               sodipodi:rx="89.285713"
               sodipodi:cy="374.50504"
               sodipodi:cx="259.28571"
               style="fill:none;stroke:#0000ff;stroke-width:20;stroke-linejoin:miter;stroke-miterlimit:4;stroke-opacity:1;stroke-dasharray:none"
               sodipodi:type="arc"
               transform="matrix(1,0,0,-1,315.71429,899.32898)" />
          </g>
        </g>
        <path
           d="m 66.670069,296.76807 c 0,9.48416 -7.688433,17.17259 -17.172594,17.17259 -9.484162,0 -17.172594,-7.68843 -17.172594,-17.17259 0,-9.48417 7.688432,-17.1726 17.172594,-17.1726 9.484161,0 17.172594,7.68843 17.172594,17.1726 z"
           sodipodi:ry="17.172594"
           sodipodi:rx="17.172594"
           sodipodi:cy="296.76807"
           sodipodi:cx="49.497475"
           id="path4449"
           style="fill:#000000;fill-opacity:1;stroke:none"
           sodipodi:type="arc"
           transform="matrix(0.18444284,0,0,0.18444284,340.53349,503.5011)" />
        <path
           transform="matrix(0.18444284,0,0,0.18444284,359.16272,503.5011)"
           sodipodi:type="arc"
           style="fill:#000000;fill-opacity:1;stroke:none"
           id="path4451"
           sodipodi:cx="49.497475"
           sodipodi:cy="296.76807"
           sodipodi:rx="17.172594"
           sodipodi:ry="17.172594"
           d="m 66.670069,296.76807 c 0,9.48416 -7.688433,17.17259 -17.172594,17.17259 -9.484162,0 -17.172594,-7.68843 -17.172594,-17.17259 0,-9.48417 7.688432,-17.1726 17.172594,-17.1726 9.484161,0 17.172594,7.68843 17.172594,17.1726 z" />
      </g>
      <g
         id="g5653">
        <path
           inkscape:connector-curvature="0"
           style="fill:#000000;fill-opacity:1;fill-rule:evenodd;stroke:none;stroke-width:0.64000001pt;marker-start:none"
           d="m 36.109338,1014.8157 2.336508,-7.952 -13.342878,10.8406 17.855715,0.3365 z"
           id="path5448"
           sodipodi:nodetypes="ccccc" />
        <path
           style="fill:none;stroke:#000000;stroke-width:4.5;stroke-linecap:butt;stroke-linejoin:miter;stroke-miterlimit:4;stroke-opacity:1;stroke-dasharray:none"
           d="m 51.29469,1025.7653 c 5.910437,-25.96379 -15.831529,-10.5544 -15.831529,-10.5544"
           id="path5453"
           inkscape:connector-curvature="0"
           sodipodi:nodetypes="cc" />
      </g>
    </g>
  </g>
</svg>
